<svg id="Layer_1" data-name="Layer 1" xmlns="http://www.w3.org/2000/svg" viewBox="0 0 400 272"><defs><style>.cls-1{fill:#ebf3fa;}.cls-2{fill:#ffb27d;}.cls-3{fill:#163560;}.cls-4{fill:#aec3ff;}.cls-5{opacity:0.3;}.cls-6{fill:#8c9df4;}.cls-7{fill:#23417c;}.cls-8{fill:#233862;}.cls-9{fill:#2b478b;}.cls-10{fill:#c65447;}.cls-11{fill:#e8945b;}.cls-12{fill:#f8fcff;}.cls-13{fill:#6bb7bf;}.cls-14{fill:#ed985f;}.cls-15{fill:#abddda;}.cls-16{fill:#fff;}.cls-17{fill:#2c3a64;}.cls-18{fill:#6980e2;}.cls-19{fill:#91cecf;}.cls-20{fill:#59a9ad;}.cls-21{fill:#e2915a;}.cls-22{fill:#9db0f4;}.cls-23{fill:#82b378;}.cls-24{fill:#2e3552;}</style></defs><title>doctors</title><path class="cls-1" d="M377.52,191c-.32,21.76-4.88,41.63-12,61.2H300c-95.54,0-261.74,0-261.75,0l-.2-.21c-7.78-8.13-10.62-20-8.91-33.24h0c1.86-14.41,9-30.05,20.14-43.27,15.9-18.91,28.6-23.85,20.26-63.51A65.12,65.12,0,0,1,70,81.79c7.4-28.35,32.63-45.1,39.33-48.85C131.74,20.42,163.3,21,187.08,27.7c38.23,10.78,51.65,39.64,63.08,55.39,4.24,5.84,8.19,9.79,13,10.22,7.91.69,19.18-5.06,32.87-6.75a50.92,50.92,0,0,1,34.26,7.36c13.68,8.36,27.12,24.6,34.75,39.49C373.89,150.65,377.82,170.19,377.52,191Z"/><path class="cls-2" d="M209.22,183.91s1.39,4.86,1.06,6.08-1.78,3.48-2.43,3.39,0-7.77,0-7.77Z"/><path class="cls-3" d="M185.76,146.3c-.5-1,11-4.47,11.17,5.12,0,0,21.52-.53,11.24-12.53-3.56-4.15-3.19-7.58-3.08-10.78s-2.22-12.49-10.19-11.55a5.91,5.91,0,0,0-4.68.5C184.29,120.13,171,149.83,185.76,146.3Z"/><path class="cls-4" d="M210.28,185.37s-.13.59-1.33.88a8.34,8.34,0,0,1-2.47.13,7.16,7.16,0,0,1-.76-.07c-.52-.05-1.08-.14-1.72-.26l.45-26.34-1.86-20.56s4,1.87,5.91,7.94c1.49,4.66,1.74,24.74,1.77,33.81C210.29,183.64,210.28,185.37,210.28,185.37Z"/><g class="cls-5"><path class="cls-6" d="M210.28,185.37s-.13.59-1.33.88a8.34,8.34,0,0,1-2.47.13l.36-19.62s.29,10.71,3.43,14.14C210.29,183.64,210.28,185.37,210.28,185.37Z"/></g><path class="cls-7" d="M171.2,241.09s-2.41,2.2-1.94,3.77,2.64,2.6,2.94,4.52,1.47,3,2.53,3h5.05s.77-1.35-1.11-1.75-2.59-2.65-2.47-4.74A36,36,0,0,0,176,241l-4-.93Z"/><path class="cls-7" d="M191.61,242s-.87,9.32.19,9.84l13.55,0s0-1.56-2.18-1.91-6-1.62-6.64-4.46S191.61,242,191.61,242Z"/><path class="cls-8" d="M202.67,165.52s3.91,12.16,4.16,16.3-7.47,58.8-7.78,60.71-2.52,2.94-2.52,2.94a3.4,3.4,0,0,1-2.5.2,6.15,6.15,0,0,1-2.67-1.27s-3-39-1.16-52.91a220.48,220.48,0,0,0,1.9-26Z"/><path class="cls-9" d="M186.12,165.16s-6,8-6.51,13.39-.87,24.39-2.06,29.66S172,223.62,172,240.05a3.3,3.3,0,0,0,1.85,1.45,14.87,14.87,0,0,0,1.62.44,2.54,2.54,0,0,0,2.86-1.35c2.94-5.92,12.31-25,12.78-29,.34-2.81,2.34-19.64,8.79-30.53,1.55-2.61,1.45-14,1.45-14Z"/><path class="cls-9" d="M181.19,149.5a51.88,51.88,0,0,0,0,6.26c.13,2.27,2.42,5.3,2.75,6.05.81,1.88,1.73,2.19,1.73,2.19l7.12,1.74.59,3.81s6,2.55,10.11-1.4c3.6-3.43,3.28-14.18,1.83-19.83a43.45,43.45,0,0,0-3.64-9.56s-5.35-2.11-14.82-.54Z"/><path class="cls-4" d="M189.42,137.64a41.53,41.53,0,0,0-4.81,1.1l-1.34,16.4h12.36L191,143Z"/><path class="cls-4" d="M195.63,155.14l-1.36,50.52s-6.77,3.22-19.7,0l3.33-53.78Z"/><rect class="cls-10" x="175.72" y="155.32" width="20.94" height="15.3" rx="1.59" transform="translate(-58.98 196.36) rotate(-48.95)"/><path class="cls-2" d="M188.27,165.88c.13,0,4.86.59,4.86,1.56a2.94,2.94,0,0,1-2.69,2.58c-.53,0-3-2.28-3-2.28Z"/><path class="cls-2" d="M190.7,137.71a15.69,15.69,0,0,0,.84-5.75l.36.07,6,1.19s-.14,1.89-.14,3.67v0c0,1.55,1,3.1-1.44,3.71C195.56,140.83,189.57,140.45,190.7,137.71Z"/><path class="cls-11" d="M197.91,133.22s-.14,1.89-.14,3.67c-3.36-.1-5.14-3.16-5.87-4.86Z"/><path class="cls-2" d="M199,134.9s-7.95.13-8-4.82-1-8.27,4-8.56,6.07,1.59,6.47,3.24S201.1,134.74,199,134.9Z"/><path class="cls-3" d="M198.73,121.39s-2.17,5.82-5.51,6.67-4.79,0-4.79,0a9.48,9.48,0,0,0,3.09-5.59S197.09,118.63,198.73,121.39Z"/><path class="cls-3" d="M198.2,121.87a4.88,4.88,0,0,1,2.27,1.78,8,8,0,0,1,1.08,4.54s1.64-4-.2-6.18S198.2,121.87,198.2,121.87Z"/><path class="cls-2" d="M188.27,165.88a5.32,5.32,0,0,1,1.89-.26c.76.11,1.32,0,1.32.2s-1,.31-1.18.41A10.51,10.51,0,0,1,188.27,165.88Z"/><path class="cls-4" d="M186.86,138.22s-5.64.4-7.81,5.66-6.26,14.09-6.26,15.57,2.29,6.07,14.6,8.7c0,0,1.28-1.34,1.2-2.4,0,0-7.69-6.6-7.67-7.37,0-1.46,1.26-3.39,8-10.14C190.77,146.4,186.86,138.22,186.86,138.22Z"/><path class="cls-6" d="M192.83,146.48s-2.11-5.8-1.7-10.16a4.89,4.89,0,0,0-2.51,1.65s-.39,6.67.83,9.77a8.2,8.2,0,0,0,2.2-.14s-.79,1.34-.67,1.49l4.65,6Z"/><path class="cls-4" d="M202.18,152.55l1.34,52s3.16.13,5-1.82l-1.66-56.3s-1.74-6.77-5.16-7.63l-3.42-.86Z"/><path class="cls-6" d="M197.77,136.89a17.52,17.52,0,0,0,.21,2.25c.56,3.91,4.72,11.75,4.25,15.25,0,0,.44-6.09.44-7.38l-1.21-.85,1.57-.65S200.09,138.16,197.77,136.89Z"/><rect class="cls-6" x="179.68" y="185.21" width="11.8" height="1.2" transform="matrix(1, 0.07, -0.07, 1, 13.93, -12.94)"/><g class="cls-5"><path class="cls-6" d="M179.65,186s-.85,7.29,0,8,9.82,1.52,10.65.85,1.12-8,1.12-8Z"/></g><path class="cls-12" d="M116.28,73.92s4.81-8.08,16.3-7.18c0,0,16.68-13.47,34.47-1.8,0,0,18.92-2.89,32.92,2.5,9.34,3.6,12.42,7.38,12.42,7.38Z"/><path class="cls-12" d="M309.88,139.19s2.42-6,8.18-5.3c0,0,8.37-9.93,17.3-1.32,0,0,9.49-2.13,16.52,1.85,4.69,2.65,6.23,5.43,6.23,5.43Z"/><path class="cls-12" d="M187.77,96.09a9.91,9.91,0,0,1,9.46-4.38s9.69-8.21,20-1.1c0,0,11-1.76,19.11,1.53,5.43,2.19,7.22,4.49,7.22,4.49Z"/><path class="cls-8" d="M236.22,122.74s-2.15-4.57-1.72-7,.34-5.61,3.55-6.85,3.5,0,7-.41,4.59,3.92,4.92,5.74c.67,3.85-.49,6.26-1.51,7.56-.88,1.12-1.28,1.68-1.28,1.68Z"/><path class="cls-8" d="M227.29,251.87a12.28,12.28,0,0,1,.32-3c.32-.75,1.5-3.8,1.5-3.8h4.6a27.58,27.58,0,0,1,.91,3.69c.06.91,0,3.11,0,3.11Z"/><path class="cls-8" d="M256.52,251.87a12.28,12.28,0,0,0-.32-3c-.32-.75-1.5-3.8-1.5-3.8h-4.6a27.58,27.58,0,0,0-.91,3.69c-.05.91,0,3.11,0,3.11Z"/><path class="cls-13" d="M227.87,173.81s.8,24.6-.4,38.63,0,33.57,0,33.57a9.09,9.09,0,0,0,8,0s4.58-27.11,4.55-33.57c0-6.87,5-37.56,5-37.56Z"/><path class="cls-13" d="M256.36,246a9.09,9.09,0,0,1-8,0s-4.58-27.11-4.55-33.57c0-2.9-.87-10.05-1.9-17.34-1.41-10-3.09-20.22-3.09-20.22l17.84-1.11s-1.47,24.64-.26,38.67S256.36,246,256.36,246Z"/><path class="cls-4" d="M231.33,133.81s-6.63.79-8.09,6.75-7.19,21.11-1.46,24.54c0,0,6.07-8.14,8.38-14.69S231.33,133.81,231.33,133.81Z"/><path class="cls-4" d="M253.89,137s6.68-.84,8.14,5.12,6.11,19.28.38,22.7c0,0-6.48-7.85-8.78-14.4S253.89,137,253.89,137Z"/><path class="cls-2" d="M238.08,125.36a42.43,42.43,0,0,1-.81,7.26l-5.08,3.55L251.33,139l-4.57-6.3s-1.37-6.73-.65-9.22S238.08,125.36,238.08,125.36Z"/><path class="cls-14" d="M238.05,126.05s1.51,3.64,4.36,3.56,3.5-3.3,3.5-3.3Z"/><path class="cls-2" d="M242.09,128.2c-2.07,0-5.87-2.78-5.87-6.19v-5.32a2.12,2.12,0,0,1,1.93-2.26H246a2.12,2.12,0,0,1,1.93,2.26v5C248,125.28,244.46,128.25,242.09,128.2Z"/><path class="cls-15" d="M256.9,184.77c-14.78,2.55-30.63.48-30.63.48l1.48-29.87c0-.43-.07-.87-.08-1.33s0-1.3,0-2.09c.29-6.27,2.19-17.54,3.63-18.15a26.44,26.44,0,0,1,5.94-1.19c0,.08,2.21,3.3,4.82,3.66a9.08,9.08,0,0,0,4.68-3.55c1,.12,2.13.27,3.3.49l.26.05a35.15,35.15,0,0,1,4.08,1s1.88.73,1.46,13.81Z"/><path class="cls-16" d="M240.44,124.78a2.28,2.28,0,0,0,1.77.84,2.1,2.1,0,0,0,1.65-.84A11.23,11.23,0,0,0,240.44,124.78Z"/><path class="cls-4" d="M226.27,161.87l-.82,44.47a79.2,79.2,0,0,0,12.39,2.09l1.48-54.37-2-18.4-1.85-3s-6.13.48-9.8,3.47c-2.5,2-3.65,9-3.65,9l5.76,6.06Z"/><path class="cls-4" d="M257.81,161.87l.83,44.47a79.46,79.46,0,0,1-12.39,2.09L245,155.68l1.76-20,1.86-3s6.11.5,9.79,3.47c4,3.18,4.75,11,4.75,11l-6.86,4Z"/><path class="cls-2" d="M221.78,165.1c6.71,1.8,10.48-2.86,26.18-9.32l-.48-2.5s-18,.21-21.21,1.92C222.16,157.43,221.23,165,221.78,165.1Z"/><path class="cls-2" d="M234.87,151.57s-6.78-.39-6.85,3.07l6.27-.28Z"/><path class="cls-14" d="M252.81,153.33s5.07-1.28,5.92,2.11-7.29,0-7.29,0Z"/><path class="cls-14" d="M240.09,159.27A29.85,29.85,0,0,0,233.5,154l7.92,1.5,2.42,2-1.1.56Z"/><polygon class="cls-14" points="248.1 153.59 254.86 153.09 254.39 155.02 248.1 153.59"/><path class="cls-14" d="M228,154.64s4.64-.79,4.56-.85a5.13,5.13,0,0,0-2.06-.37C230.16,153.61,228,154.64,228,154.64Z"/><path class="cls-6" d="M237.73,130s-2.8,1.55-3.29,3c0,0-1.36,5.92.43,9.9l2.86-.69-1.47,1.81s.76,8.22,3.06,10C239.32,154.06,237.53,132.23,237.73,130Z"/><path class="cls-6" d="M246.3,130s2.8,1.55,3.29,3c0,0,1.8,5.5,0,9.49l-3.29-.28,2.36,1.95s-1.32,9.7-3.62,11.49C245,155.68,246.5,132.23,246.3,130Z"/><path class="cls-2" d="M262.41,164.81S248.49,163.3,232.19,153l2.68-1.45s21.38,2.32,24.06,4.33C263.14,159.06,265.57,164.08,262.41,164.81Z"/><rect class="cls-1" x="230.3" y="144.74" width="4.57" height="2.01"/><path class="cls-8" d="M239.45,114.43a6.48,6.48,0,0,0,4.79,1.53c2.68-.37,2.62-1.5,3-1s.41,4.33.94,4.59l.27-5.1-5.33-3.06-7.64.88.74,7.46s-.14-2.73,1-3.52A21.94,21.94,0,0,0,239.45,114.43Z"/><path class="cls-8" d="M70.56,251.71a12.35,12.35,0,0,1,.32-3c.32-.75,1.5-3.8,1.5-3.8H77a27.82,27.82,0,0,1,.91,3.7c.06.91,0,3.11,0,3.11Z"/><path class="cls-8" d="M99.79,251.71a12.35,12.35,0,0,0-.32-3c-.32-.75-1.5-3.8-1.5-3.8h-4.6a27.82,27.82,0,0,0-.91,3.7c0,.91,0,3.11,0,3.11Z"/><path class="cls-9" d="M71.14,173.64s.8,24.6-.4,38.64,0,33.57,0,33.57a9.11,9.11,0,0,0,8,0s4.58-27.12,4.56-33.57c0-6.87,5-37.56,5-37.56Z"/><path class="cls-9" d="M99.63,245.85a9.13,9.13,0,0,1-8,0S87,218.73,87.05,212.28c0-2.9-.87-10.06-1.9-17.35-1.41-10-3.09-20.21-3.09-20.21L99.9,173.6s-1.47,24.64-.26,38.68S99.63,245.85,99.63,245.85Z"/><path class="cls-8" d="M87.05,212.28c0-2.9-.87-10.06-1.9-17.35a34.16,34.16,0,0,1,3.67-8.55C92.11,195.62,87.05,212.28,87.05,212.28Z"/><path class="cls-2" d="M74.6,133.64s-6.63.79-8.09,6.75-7.19,21.12-1.46,24.54c0,0,6.07-8.13,8.38-14.69S74.6,133.64,74.6,133.64Z"/><path class="cls-2" d="M97.16,136.83s6.68-.84,8.14,5.12,6.11,19.27.38,22.7c0,0-6.48-7.85-8.78-14.41S97.16,136.83,97.16,136.83Z"/><path class="cls-2" d="M81.35,125.19a42.51,42.51,0,0,1-.81,7.27L75.46,136l19.14,2.87L90,132.56s-1.37-6.73-.65-9.22S81.35,125.19,81.35,125.19Z"/><path class="cls-14" d="M81.32,125.88s1.51,3.65,4.36,3.57,3.5-3.31,3.5-3.31Z"/><path class="cls-17" d="M79.62,122.93a46.36,46.36,0,0,0-1.56-6c-.65-1.39-1.18-7.6,5.94-7.92,0,0,2.73.32,4.23-.59,0,0,0,.91-.38,1.23a4.72,4.72,0,0,1,4.39,1.56c1.93,2.14-1.28,9.63-1.12,11.4Z"/><path class="cls-2" d="M85.36,128c-2.07,0-5.87-2.79-5.87-6.2v-5.31a2.12,2.12,0,0,1,1.93-2.26H89.3a2.12,2.12,0,0,1,1.93,2.26v5C91.23,125.11,87.73,128.08,85.36,128Z"/><path class="cls-17" d="M79.49,119.37s0-3.2,2.54-3.69,8.19,1.56,9-.77-11-2.29-11.54-.8S79.49,119.37,79.49,119.37Z"/><path class="cls-15" d="M101,148.06l-.82,36.54c-14.78,2.55-30.63.49-30.63.49L71,155.22c0-.44-.07-.88-.08-1.33s0-1.31,0-2.09c.29-6.27,2.19-17.55,3.63-18.16a26.87,26.87,0,0,1,5.94-1.18c0,.07,2.21,3.29,4.82,3.65A9,9,0,0,0,90,132.56c1,.12,2.14.27,3.3.49l.26,0a34.77,34.77,0,0,1,4.09,1.05s1.88.73,1.46,13.81Z"/><path class="cls-16" d="M83.71,124.61a2.28,2.28,0,0,0,1.77.84,2.1,2.1,0,0,0,1.65-.84A11.23,11.23,0,0,0,83.71,124.61Z"/><path class="cls-2" d="M65.05,164.93c6.71,1.81,10.48-2.86,26.18-9.31l-.48-2.51s-18,.21-21.21,1.93C65.43,157.26,64.5,164.78,65.05,164.93Z"/><path class="cls-15" d="M77.71,132.86h0l-1.58,4.68-.08.22,0,.06-.11.34L74,144l-.2.58-2.15,6.38L71,151c-5.61.4-8.39-1.27-8.39-1.27s1.16-7.47,3.95-11.72c1.83-2.78,6-4.11,8.72-4.7l.25-.06C76.83,133,77.71,132.86,77.71,132.86Z"/><path class="cls-15" d="M95.72,133.64a14.67,14.67,0,0,1,8.24,4.63c3.28,3.9,4.13,10.7,4.13,10.7a22.72,22.72,0,0,1-9.89,1.45C92.85,149.94,95.72,133.64,95.72,133.64Z"/><rect class="cls-1" x="89.87" y="144" width="6.84" height="2.6"/><path class="cls-9" d="M74.2,149.59l.32-.14a14.62,14.62,0,0,1-.65-9,3.56,3.56,0,0,1,2.91-2.57A3.16,3.16,0,0,1,80,139.55c1.77,3-1.45,10.2-1.48,10.27l.32.14a30,30,0,0,0,1.44-4.08c.81-3,.82-5.19,0-6.52a3.52,3.52,0,0,0-3.55-1.87,3.89,3.89,0,0,0-3.2,2.82A14.92,14.92,0,0,0,74.2,149.59Z"/><path class="cls-9" d="M79.14,150a.51.51,0,0,0-1-.28.51.51,0,1,0,1,.28Z"/><path class="cls-9" d="M74.89,149.67a.51.51,0,0,0-1-.28.5.5,0,0,0,.35.63A.51.51,0,0,0,74.89,149.67Z"/><path class="cls-9" d="M77.42,137.79h0a.12.12,0,0,1-.09-.15,14.44,14.44,0,0,1,2.52-5.39.12.12,0,0,1,.17,0,.13.13,0,0,1,0,.17,14.26,14.26,0,0,0-2.48,5.28A.12.12,0,0,1,77.42,137.79Z"/><path class="cls-2" d="M78.14,151.4s-6.78-.38-6.85,3.08l6.27-.29Z"/><path class="cls-14" d="M96.08,153.17s5.07-1.29,5.92,2.11-7.29,0-7.29,0Z"/><path class="cls-9" d="M93.77,138.22a.13.13,0,0,1-.12-.08,20.22,20.22,0,0,0-3.22-5.61.12.12,0,0,1,0-.17.13.13,0,0,1,.17,0,20.34,20.34,0,0,1,3.27,5.68.14.14,0,0,1-.07.16Z"/><path class="cls-9" d="M95,138.36a1.19,1.19,0,1,0-1.18,1.19A1.18,1.18,0,0,0,95,138.36Z"/><path class="cls-18" d="M94.31,138.36a.54.54,0,1,0-.54.54A.54.54,0,0,0,94.31,138.36Z"/><path class="cls-14" d="M83.36,159.11a29.85,29.85,0,0,0-6.59-5.26l7.92,1.49,2.42,2-1.1.56Z"/><polygon class="cls-14" points="91.37 153.42 98.13 152.93 97.66 154.86 91.37 153.42"/><path class="cls-2" d="M105.68,164.65s-13.92-1.51-30.22-11.8l2.68-1.45s21.38,2.32,24.06,4.34C106.41,158.9,108.84,163.91,105.68,164.65Z"/><path class="cls-14" d="M71.29,154.48s4.64-.8,4.55-.86a5.06,5.06,0,0,0-2-.36Z"/><path class="cls-2" d="M279.4,152.11c-.24.44-1.8,17-.57,19.22s7-4.17,7.15-14.87C286.1,147.44,279.4,152.11,279.4,152.11Z"/><rect class="cls-8" x="269.94" y="164.98" width="23.91" height="16.86" transform="translate(499.81 422.5) rotate(-162.78)"/><path class="cls-9" d="M278.86,247.76l2.35.87s10.22-14.17,11.47-26.63a19,19,0,0,0-.33-6.38s.1-.57.27-1.58q.12-.71.3-1.68c.33-1.9.78-4.51,1.31-7.47,1.2-6.83,2.76-15.55,4-22l-.64-.2-6.85-2.22-1.42-4.5-5.11-1.34S283,176.9,282,187.44c-.19,1.38-.36,2.91-.49,4.56a90.94,90.94,0,0,0,.49,18.46q.35,2.76.9,5.67a25.51,25.51,0,0,1,.19,5.6C282.6,231.92,278.86,247.76,278.86,247.76Z"/><path class="cls-8" d="M281.53,192l11.09,22q.12-.71.3-1.68c.33-1.9.78-4.51,1.31-7.47,1.2-6.83,2.76-15.55,4-22l-.64-.2-6.85-2.22-1.42-4.5-5.11-1.34S283,176.9,282,187.44C281.83,188.82,281.66,190.35,281.53,192Z"/><path class="cls-9" d="M286.41,177.5l.26-2.2c4.3,1.14,15.79-3.2,15.79-3.2s4.16,3.67,3.62,12.44c-.27,4.29-.76,22.49-1.27,27.88-.18,2-.34,3.34-.41,3.9h0a.76.76,0,0,0,.13.48,25.13,25.13,0,0,1,1.88,4c5,13.32-.77,29.72-.77,29.72l-1.5-.6s-3.28-18.26-5.95-26.32a15.56,15.56,0,0,0-1.29-3.09,34.91,34.91,0,0,1-3.21-8.57,210,210,0,0,1-4.32-22.73C289.23,189.18,286.41,177.5,286.41,177.5Z"/><path class="cls-8" d="M296.93,251.71h11.85a6.54,6.54,0,0,0-.34-3.18c-.59-1.31-1.52-1.91-1.3-3.5a4.26,4.26,0,0,1-3.69,1.41,13.18,13.18,0,0,1-2.05,2.67C300.62,249.66,297.17,249.46,296.93,251.71Z"/><path class="cls-8" d="M271.5,251.71h11.84a4.91,4.91,0,0,0-.33-3.18,2.29,2.29,0,0,1,.08-2.73,4.62,4.62,0,0,1-2,.38,4.05,4.05,0,0,1-1.76-.62,43.28,43.28,0,0,1-3.38,3.55C275.19,249.66,271.73,249.46,271.5,251.71Z"/><path class="cls-17" d="M299.33,116.68c.09-.32,1.22-3.72,6.54-2.56,0,0-2.68-.35-3.41.68,0,0,2.12-1,3.44-.15s1.53,3.55,1.33,4.38-1.67,3.3-2.64,3.3a2.93,2.93,0,0,1-1.11-.28,12.46,12.46,0,0,1,.39,1.44c1,4.85-2.23,8.53-3.89,7.61-1.07-.59-1.89,1.28-1.89,1.28l-8.82-11.8S295.48,113.18,299.33,116.68Z"/><path class="cls-2" d="M291.86,148c7.31,2.28,8.48-9.18,8-9.24-.78-.7-1.83-3.41-1.8-7.5l-.36.07-6,1.16s.13,1.88.13,3.65a7,7,0,0,1-.38,3l-.74.11h0C290.65,139.41,289.91,147.41,291.86,148Z"/><path class="cls-14" d="M291.73,132.51s.13,1.88.13,3.66c3.34-.09,5.12-3.13,5.85-4.82Z"/><path class="cls-2" d="M290.61,134.18s7.91.17,7.94-4.76,1.06-8.24-4-8.55-6.05,1.57-6.46,3.21S288.55,134,290.61,134.18Z"/><path class="cls-17" d="M288.35,121.34c1.23-1.48,2.15-1.15,2.67-.7a5.53,5.53,0,0,1,7.11,1.17,9.41,9.41,0,0,0,3.06,5.57s-1.45.89-4.77,0a5.72,5.72,0,0,1-2.69-1.87,18.43,18.43,0,0,0,3.17,3.89c-4-1.85-5.54-7.38-5.7-8a6.34,6.34,0,0,0-1.74,2.3c-.4,1.25-.58,3.84-1.34,3.75C288.12,127.5,286.51,123.56,288.35,121.34Z"/><path class="cls-19" d="M299.05,137.43s1.24.41,1.31,1.29c0,0-3.33,6.22-7,6.58Z"/><path class="cls-15" d="M281.67,167.06l-2.86,16.31q2.54,1.55,4.89,2.68a19.63,19.63,0,0,1,1.28-2.81c-.23.84.35,2.7.71,3.72,14.59,6.29,23.4,1.46,23.4,1.46-2.19-16.12-.57-42.65-1-44.54-.75-3.6-7.77-5.16-7.77-5.16a17.6,17.6,0,0,1-7,6.58c-1.68-1.66-2.11-6.09-2.11-6.09l-2.93.72a11.13,11.13,0,0,0-5.05,2.75l-.37.38c-1.44,1.54-5.21,11.53-5.21,11.53a11,11,0,0,0,2.24,4.12,16.69,16.69,0,0,0,2.86,2.08Z"/><path class="cls-19" d="M293.34,145.3s-1.83-6.05-1.62-6.83c0,0-1.43.17-1.55,1C290.17,139.47,291.79,144.52,293.34,145.3Z"/><path class="cls-16" d="M292.41,131.36s-.36.77-.85.85a3.82,3.82,0,0,1-1.45,0c-.17-.08-.45-.62-.57-.79a23.29,23.29,0,0,1,2.75-.06Z"/><path class="cls-19" d="M279.91,158.71a20.05,20.05,0,0,0,2.86,2.08s2.19-8.2,1.54-8.77S282.46,156.84,279.91,158.71Z"/><path class="cls-2" d="M311.79,149.37S322,163.28,321,168c-.79,3.77-11.13,12.42-11.13,12.42l-2.67-1.73s6.46-9.35,5.9-12.09c-.45-2.14-6.85-10.22-6.85-10.22Z"/><path class="cls-15" d="M305,140.45s5.67,3,10.55,12.7a18.58,18.58,0,0,1-8.61,5.69c-5.73,1.86-5.54-9.21-5.54-9.21Z"/><polygon class="cls-19" points="293.05 151.32 286.02 151.34 285.98 157.11 289.06 158.85 292.89 157.37 293.05 151.32"/><path class="cls-2" d="M307.9,178.87s-2.88-1.1-4.49-.67c-.91.24-2.6,3.46-1.55,4s2.24-1.24,3.54-.91,2.9,2.2,4.48-.82Z"/><path class="cls-2" d="M307.75,178.5a14.72,14.72,0,0,1-1.61-.84c-.5-.35-.8.27,0,.84s1.09.32,1.09.32Z"/><path class="cls-2" d="M268.79,178.15s3.27-1.55,3.94.19-.49,3.2-1.58,2.86S268.1,179.69,268.79,178.15Z"/><path class="cls-9" d="M301.66,157.22l-.25-.25a14.56,14.56,0,0,0,3.59-8.31,3.56,3.56,0,0,0-1.9-3.39,3.16,3.16,0,0,0-3.58.56c-2.65,2.23-2,10.11-2,10.19l-.36,0a32.07,32.07,0,0,1,0-4.33c.23-3.1.94-5.17,2.12-6.16a3.51,3.51,0,0,1,4-.61,4,4,0,0,1,2.1,3.73A15.08,15.08,0,0,1,301.66,157.22Z"/><path class="cls-9" d="M296.85,156a.51.51,0,1,1,.48.54A.51.51,0,0,1,296.85,156Z"/><path class="cls-9" d="M301,157.06a.52.52,0,0,1,.55-.48.51.51,0,0,1-.07,1A.52.52,0,0,1,301,157.06Z"/><path class="cls-9" d="M302.55,145h0a.12.12,0,0,1-.1-.14,14.29,14.29,0,0,0-.6-5.8.12.12,0,1,1,.23-.09,14.57,14.57,0,0,1,.61,5.92A.13.13,0,0,1,302.55,145Z"/><path class="cls-9" d="M287.65,145.93h0a.12.12,0,0,1-.12-.13,20.7,20.7,0,0,1,1.37-6.41.12.12,0,0,1,.16-.06.11.11,0,0,1,.07.15,20.28,20.28,0,0,0-1.35,6.33A.13.13,0,0,1,287.65,145.93Z"/><path class="cls-9" d="M286.61,146.42a1.18,1.18,0,1,1,1.49.77A1.18,1.18,0,0,1,286.61,146.42Z"/><path class="cls-18" d="M287.22,146.22a.54.54,0,0,1,1-.33.54.54,0,0,1-1,.33Z"/><path class="cls-8" d="M127.14,251.73h7.66a20.28,20.28,0,0,0-.61-2.75,7.88,7.88,0,0,0-.44-1.1c-.74-1.49-5.47-.54-5.47-.54a3.57,3.57,0,0,0-.78,1.81A15.29,15.29,0,0,0,127.14,251.73Z"/><path class="cls-4" d="M141.19,134.35s6.1,1.07,7.48,4.67,9.17,61.74,9.17,61.74-3.86,3.05-12.14,2S141.19,134.35,141.19,134.35Z"/><path class="cls-8" d="M150.27,249.55a4.15,4.15,0,0,0,.53,2.42h15.14a2.64,2.64,0,0,0-2.3-1.63,11.44,11.44,0,0,1-6.12-2.83,4.62,4.62,0,0,1-1.19-2.15c-.71-3.17-5.88,1-5.88,1A26,26,0,0,0,150.27,249.55Z"/><path class="cls-20" d="M156.79,247.29c-1.69.53-4.93,2.18-7,1.41-1.33-.5-8.75-22-9.23-31.35a23,23,0,0,0-.38-2.8c-.44-2.42-1.21-5.75-2.09-9.42-2.38-9.85-5.59-22.16-5.52-26.1.11-6.11,18.21-1.28,18.21-1.28A65.73,65.73,0,0,1,152.29,190c.49,14.4,1.84,38.72,5.52,55.62A1.47,1.47,0,0,1,156.79,247.29Z"/><path class="cls-13" d="M144.23,179.05l-9.57,69.34a18.66,18.66,0,0,1-7.47.21s-2.8-36.88-2.57-45.8-2-23.85.52-25.5S144.23,179.05,144.23,179.05Z"/><path class="cls-16" d="M123.93,137.52s10-6.5,17.26-3.17a13.42,13.42,0,0,1,3.4,3c2.61,2.87,7.7,48.5,7.7,48.5s-14.46,4.89-28.36-1.66Z"/><path class="cls-4" d="M141.76,134.18s10.18,4.17,11.56,7.38,5.86,22.88,5.86,25.19-7.8.52-9.06-3.2c-1-3.1-4.56-12.59-6.41-18.6Z"/><path class="cls-2" d="M139.65,137.36a11.47,11.47,0,0,1-7.88-1.6,22.45,22.45,0,0,0,1.68-5.93l0-.21a5.52,5.52,0,0,0,0-1.35h5.75s1.57.71,1.57,1.21c0,.27,0,.52,0,.76,0,.66,0,1.24.07,1.73a16.43,16.43,0,0,0,.29,2.38S141.89,136.92,139.65,137.36Z"/><path class="cls-21" d="M140.9,132a7.94,7.94,0,0,1-7.45-2.14l-.12-.14.15-.07c1.62-.65,5.29-.13,7.35.62C140.84,130.9,140.86,131.48,140.9,132Z"/><path class="cls-2" d="M132,127.32c.78,4.19,6.18,4.05,8.51,3.79.66-.08,1.07-.16,1.07-.16.74-.2,1.16-1.36,1.35-2.89.38-3-.1-7.46-.61-8.6-.77-1.71-2.22-3.56-7.66-2.22S131,122,132,127.32Z"/><path class="cls-8" d="M142.55,117.13a12.49,12.49,0,0,0-3.75-3.07c-3.07-1.66-7,.06-7,.06-4.44,2-5.6,5.36-3.24,10.65,2.49,5.6,4.86,5,4.86,5s-.51-.31-.46-2.06c0-.1,0-.18,0-.25a1.18,1.18,0,0,0-.37-1c-.55-.49-.82-2-.36-2.39s1.34.1,1.59.57a.69.69,0,0,0,1,.22c1.38-.88.48-2.63,1.8-3.7s4-.17,6-1C145.16,119.18,143.11,117.9,142.55,117.13Z"/><path class="cls-4" d="M143.17,205c-.88.22-1.74.41-2.6.55s-1.52.23-2.28.29a36.93,36.93,0,0,1-13.68-1.68c-1.14-.32-2.31-.69-3.53-1.1-.13-.05.33-13.4.86-27.18.06-1.43.11-2.85.17-4.27,0-.6,0-1.2.07-1.8.48-12.18,1-23.19,1.06-23.78.24-1.34.45-2.48.69-3.47.68-2.89,1.54-4.47,3.4-5.84.18-.13,1.67-.88,3-1.54l2.06-1h0a5.69,5.69,0,0,1,1.49,2.6,91.13,91.13,0,0,1,2.84,9.44h0c.48,1.9.83,3.38.93,3.8.17.72.39,2.1.65,4,.35,2.56.78,6,1.22,10,.05.41.1.82.14,1.23s.11.95.16,1.43c0,.16,0,.32.05.47.17,1.56.35,3.17.52,4.8.14,1.36,2.19,2.33,2.34,3.71.08.81.25,8.26.47,10.64C143.34,188,143.23,204.23,143.17,205Z"/><path class="cls-22" d="M128.33,151s-.35,12.33,8.9,13.82,3.11,1.89,3.11,1.89-17.41-.74-17.69-1.2S128.33,151,128.33,151Z"/><path class="cls-22" d="M136.15,170.07l-.51.33,0,0a43.63,43.63,0,0,1-11.69,5c-.64.17-1.31.34-2,.49.06-1.43.11-2.85.17-4.27a17.31,17.31,0,0,1-2.29-.32c0-.19.05-.37.07-.56l2.29-.92,1.75-.67c2.5-.95,4.36-1.59,4.36-1.59l7.41,2.35Z"/><path class="cls-4" d="M138.11,169.86s-1,.24-2.47.54h0a60.93,60.93,0,0,1-11.69,1.31c-.62,0-1.23,0-1.82-.08a17.31,17.31,0,0,1-2.29-.32,7,7,0,0,1-3.66-1.73c-6.25-6.36,3.4-29.2,5.43-31.42,2.37-2.59,6.7-3.5,9.09-3.81l.29,0c.84-.1,1.38-.12,1.41-.12h0s-.19.6-.5,1.62c-.13.4-.27.85-.42,1.37-1.47,4.8-4.3,14.24-5.55,19.57a13.42,13.42,0,0,0-.59,3.76c.49,1.82,5.54,2.75,8.73,3.17,1.34.17,2.35.25,2.58.27h0l.19.76.44,1.82.43,1.79Z"/><polygon class="cls-8" points="155.53 180.81 134.08 179.9 138.43 153.17 159.88 154.07 155.53 180.81"/><path class="cls-2" d="M136.67,164s4.18-.29,4.39.69c.49,2.26-3.59,4.13-4.91,4S135.71,163.81,136.67,164Z"/><path class="cls-2" d="M158.71,159.5s-4-1.25-4.42-.35c-1,2.09,2.53,4.85,3.85,5S159.68,159.58,158.71,159.5Z"/><path class="cls-22" d="M132.81,132.86a7.69,7.69,0,0,0-2.64,2.1s6.57,11.4,6.54,11.29S134.49,134.32,132.81,132.86Z"/><path class="cls-22" d="M141,133a4.93,4.93,0,0,1,1.94,2l.78,9.95s-1.67-7.3-2.52-10.6A6.08,6.08,0,0,1,141,133Z"/><path class="cls-10" d="M145.54,153.47a1,1,0,0,1,1.15-.66c1,.09,6.46.36,6.46.36s1.06,0,1,.66Z"/><path class="cls-16" d="M139.25,128.27a2.26,2.26,0,0,0,1.86.44c.68-.11,1.06-1,1.06-1A5.07,5.07,0,0,0,139.25,128.27Z"/><rect class="cls-1" x="126.61" y="142.25" width="5.55" height="2.49"/><path class="cls-23" d="M53.83,251.22c-.55-.86-2.21-3.11-4.41-2.81-2.41.32,2.65,1.91,4.2,2.82a2.63,2.63,0,0,1-.86-.1c-1-.37-2.81.34-3.37.58h9.85a1.61,1.61,0,0,0-.7-.9,1.8,1.8,0,0,0-.91-.08c.58-.69,1-2.89-.64-2.33-1.19.42-1.19,1.77-1.07,2.56l-.77.12c-.49-2.5-2.22-9.83-5.74-10s3,7.6,5.22,10.09C54.35,251.18,54.08,251.21,53.83,251.22Z"/><rect class="cls-24" x="12.69" y="251.71" width="374.38" height="1.29" rx="0.65"/></svg>